<svg xmlns="http://www.w3.org/2000/svg" width="1600" height="1000" viewBox="0 0 1600 1000"><defs><linearGradient id="bg" x1="0" y1="0" x2="1" y2="1"><stop offset="0" stop-color="#070A12"/><stop offset=".7" stop-color="#0B1020"/><stop offset="1" stop-color="#17122D"/></linearGradient><pattern id="grid" width="44" height="44" patternUnits="userSpaceOnUse"><path d="M44 0L0 0 0 44" fill="none" stroke="#263044" stroke-width=".75" opacity=".5"/></pattern><marker id="arrow" markerWidth="12" markerHeight="10" refX="11" refY="5" orient="auto"><path d="M0,0 L12,5 L0,10 z" fill="#A7B0C0"/></marker></defs><rect width="1600" height="1000" fill="url(#bg)"/><rect width="1600" height="1000" fill="url(#grid)" opacity=".35"/><circle cx="1350" cy="20" r="430" fill="#60A5FA" opacity=".13"/><text x="70" y="72" fill="#60A5FA" font-family="JetBrains Mono, Consolas, monospace" font-size="18" font-weight="800">CUELLAR CYBER CONSULTING • WORKFLOW</text><text x="70" y="128" fill="#F6F8FC" font-family="Inter, Arial" font-size="46" font-weight="850">Operational Workflow</text><text x="70" y="166" fill="#A7B0C0" font-family="Inter, Arial" font-size="20">SOC investigation workspace • fictional NDA-safe demonstration</text><rect x="92" y="360" width="190" height="118" rx="22" fill="#101827" stroke="#22D3EE" stroke-width="2"/><circle cx="122" cy="394" r="17" fill="#22D3EE"/><text x="122" y="400" fill="#061018" font-family="Inter" font-size="17" font-weight="900" text-anchor="middle">1</text><text x="150" y="392" fill="#F6F8FC" font-family="Inter, Arial" font-size="15" font-weight="800" text-anchor="start">Alert intake</text><path d="M282 420 L297 420" stroke="#A7B0C0" stroke-width="2" marker-end="url(#arrow)"/><rect x="302" y="360" width="190" height="118" rx="22" fill="#101827" stroke="#60A5FA" stroke-width="2"/><circle cx="332" cy="394" r="17" fill="#60A5FA"/><text x="332" y="400" fill="#061018" font-family="Inter" font-size="17" font-weight="900" text-anchor="middle">2</text><text x="360" y="392" fill="#F6F8FC" font-family="Inter, Arial" font-size="15" font-weight="800" text-anchor="start">Entity</text><text x="360" y="416" fill="#F6F8FC" font-family="Inter, Arial" font-size="15" font-weight="800" text-anchor="start">enrichment</text><path d="M492 420 L507 420" stroke="#A7B0C0" stroke-width="2" marker-end="url(#arrow)"/><rect x="512" y="360" width="190" height="118" rx="22" fill="#101827" stroke="#8B7CFF" stroke-width="2"/><circle cx="542" cy="394" r="17" fill="#8B7CFF"/><text x="542" y="400" fill="#061018" font-family="Inter" font-size="17" font-weight="900" text-anchor="middle">3</text><text x="570" y="392" fill="#F6F8FC" font-family="Inter, Arial" font-size="15" font-weight="800" text-anchor="start">Timeline</text><text x="570" y="416" fill="#F6F8FC" font-family="Inter, Arial" font-size="15" font-weight="800" text-anchor="start">assembly</text><path d="M702 420 L717 420" stroke="#A7B0C0" stroke-width="2" marker-end="url(#arrow)"/><rect x="722" y="360" width="190" height="118" rx="22" fill="#101827" stroke="#34D399" stroke-width="2"/><circle cx="752" cy="394" r="17" fill="#34D399"/><text x="752" y="400" fill="#061018" font-family="Inter" font-size="17" font-weight="900" text-anchor="middle">4</text><text x="780" y="392" fill="#F6F8FC" font-family="Inter, Arial" font-size="15" font-weight="800" text-anchor="start">Evidence scoring</text><path d="M912 420 L927 420" stroke="#A7B0C0" stroke-width="2" marker-end="url(#arrow)"/><rect x="932" y="360" width="190" height="118" rx="22" fill="#101827" stroke="#FBBF24" stroke-width="2"/><circle cx="962" cy="394" r="17" fill="#FBBF24"/><text x="962" y="400" fill="#061018" font-family="Inter" font-size="17" font-weight="900" text-anchor="middle">5</text><text x="990" y="392" fill="#F6F8FC" font-family="Inter, Arial" font-size="15" font-weight="800" text-anchor="start">Decision point</text><rect x="1142" y="360" width="190" height="118" rx="22" fill="#101827" stroke="#FB7185" stroke-width="2"/><circle cx="1172" cy="394" r="17" fill="#FB7185"/><text x="1172" y="400" fill="#061018" font-family="Inter" font-size="17" font-weight="900" text-anchor="middle">6</text><text x="1200" y="392" fill="#F6F8FC" font-family="Inter, Arial" font-size="15" font-weight="800" text-anchor="start">Containment</text><text x="1200" y="416" fill="#F6F8FC" font-family="Inter, Arial" font-size="15" font-weight="800" text-anchor="start">status</text><path d="M1332 420 L1347 420" stroke="#A7B0C0" stroke-width="2" marker-end="url(#arrow)"/><rect x="302" y="570" width="190" height="118" rx="22" fill="#101827" stroke="#FB923C" stroke-width="2"/><circle cx="332" cy="604" r="17" fill="#FB923C"/><text x="332" y="610" fill="#061018" font-family="Inter" font-size="17" font-weight="900" text-anchor="middle">7</text><text x="360" y="602" fill="#F6F8FC" font-family="Inter, Arial" font-size="15" font-weight="800" text-anchor="start">Case handoff</text><rect x="92" y="745" width="1416" height="92" rx="22" fill="#151D2E" stroke="#2A3548"/><text x="125" y="800" fill="#F6F8FC" font-family="Inter, Arial" font-size="20" font-weight="750" text-anchor="start">Human decision points are explicit: approval, escalation, risk acceptance, containment, and handoff remain owned by people.</text><text x="70" y="948" fill="#A7B0C0" font-family="Inter, Arial" font-size="17">Fictional portfolio demonstration. No employer, client, proprietary, or confidential materials are used.</text></svg>