<svg xmlns="http://www.w3.org/2000/svg" width="1600" height="1000" viewBox="0 0 1600 1000"><defs><linearGradient id="bg" x1="0" y1="0" x2="1" y2="1"><stop offset="0" stop-color="#070A12"/><stop offset=".7" stop-color="#0B1020"/><stop offset="1" stop-color="#17122D"/></linearGradient><pattern id="grid" width="44" height="44" patternUnits="userSpaceOnUse"><path d="M44 0L0 0 0 44" fill="none" stroke="#263044" stroke-width=".75" opacity=".5"/></pattern><marker id="arrow" markerWidth="12" markerHeight="10" refX="11" refY="5" orient="auto"><path d="M0,0 L12,5 L0,10 z" fill="#A7B0C0"/></marker></defs><rect width="1600" height="1000" fill="url(#bg)"/><rect width="1600" height="1000" fill="url(#grid)" opacity=".35"/><circle cx="1350" cy="20" r="430" fill="#8B7CFF" opacity=".13"/><text x="70" y="72" fill="#8B7CFF" font-family="JetBrains Mono, Consolas, monospace" font-size="18" font-weight="800">CUELLAR CYBER CONSULTING • DASHBOARD</text><text x="70" y="128" fill="#F6F8FC" font-family="Inter, Arial" font-size="46" font-weight="850">Detection Engineering &amp; Threat Investigation</text><text x="70" y="166" fill="#A7B0C0" font-family="Inter, Arial" font-size="20">Detection lifecycle and validation pipeline • fictional NDA-safe demonstration</text><rect x="80" y="220" width="320" height="130" rx="24" fill="#101827" stroke="#2A3548"/><text x="104" y="270" fill="#22D3EE" font-family="Inter" font-size="25" font-weight="850">Detection precision</text><text x="104" y="306" fill="#A7B0C0" font-family="Inter" font-size="15">Proposed measure: validated</text><text x="104" y="330" fill="#A7B0C0" font-family="Inter" font-size="15">true-positive alerts divided by</text><rect x="450" y="220" width="320" height="130" rx="24" fill="#101827" stroke="#2A3548"/><text x="474" y="270" fill="#60A5FA" font-family="Inter" font-size="25" font-weight="850">Coverage confidence</text><text x="474" y="306" fill="#A7B0C0" font-family="Inter" font-size="15">Percentage of required telemetry</text><text x="474" y="330" fill="#A7B0C0" font-family="Inter" font-size="15">fields present and reliable for</text><rect x="820" y="220" width="320" height="130" rx="24" fill="#101827" stroke="#2A3548"/><text x="844" y="270" fill="#8B7CFF" font-family="Inter" font-size="25" font-weight="850">False-positive classes</text><text x="844" y="306" fill="#A7B0C0" font-family="Inter" font-size="15">Tracked categories such as admin</text><text x="844" y="330" fill="#A7B0C0" font-family="Inter" font-size="15">tools, software deployment,</text><rect x="1190" y="220" width="320" height="130" rx="24" fill="#101827" stroke="#2A3548"/><text x="1214" y="270" fill="#34D399" font-family="Inter" font-size="25" font-weight="850">Runbook adoption</text><text x="1214" y="306" fill="#A7B0C0" font-family="Inter" font-size="15">Percentage of alerts with</text><text x="1214" y="330" fill="#A7B0C0" font-family="Inter" font-size="15">documented analyst decisions</text><rect x="80" y="410" width="940" height="360" rx="28" fill="#151D2E" stroke="#2A3548"/><text x="120" y="462" fill="#F6F8FC" font-family="Inter, Arial" font-size="28" font-weight="850" text-anchor="start">Detection Pipeline</text><text x="130" y="520" fill="#A7B0C0" font-family="Inter, Arial" font-size="18" font-weight="650" text-anchor="start">ATT&amp;CK mapping</text><rect x="470" y="502" width="430" height="20" rx="10" fill="#253044"/><rect x="470" y="502" width="352" height="20" rx="10" fill="#22D3EE"/><text x="130" y="558" fill="#A7B0C0" font-family="Inter, Arial" font-size="18" font-weight="650" text-anchor="start">Data-source coverage</text><rect x="470" y="540" width="430" height="20" rx="10" fill="#253044"/><rect x="470" y="540" width="288" height="20" rx="10" fill="#60A5FA"/><text x="130" y="596" fill="#A7B0C0" font-family="Inter, Arial" font-size="18" font-weight="650" text-anchor="start">Detection quality scorecard</text><rect x="470" y="578" width="430" height="20" rx="10" fill="#253044"/><rect x="470" y="578" width="318" height="20" rx="10" fill="#8B7CFF"/><text x="130" y="634" fill="#A7B0C0" font-family="Inter, Arial" font-size="18" font-weight="650" text-anchor="start">Rule owner</text><rect x="470" y="616" width="430" height="20" rx="10" fill="#253044"/><rect x="470" y="616" width="391" height="20" rx="10" fill="#34D399"/><text x="130" y="672" fill="#A7B0C0" font-family="Inter, Arial" font-size="18" font-weight="650" text-anchor="start">Version history</text><rect x="470" y="654" width="430" height="20" rx="10" fill="#253044"/><rect x="470" y="654" width="249" height="20" rx="10" fill="#FBBF24"/><text x="130" y="710" fill="#A7B0C0" font-family="Inter, Arial" font-size="18" font-weight="650" text-anchor="start">Runbook</text><rect x="470" y="692" width="430" height="20" rx="10" fill="#253044"/><rect x="470" y="692" width="339" height="20" rx="10" fill="#FB7185"/><rect x="1080" y="410" width="420" height="360" rx="28" fill="#151D2E" stroke="#2A3548"/><text x="1120" y="462" fill="#F6F8FC" font-family="Inter, Arial" font-size="28" font-weight="850" text-anchor="start">Decision queue</text><rect x="1120" y="488" width="330" height="56" rx="14" fill="#0B1220" stroke="#2A3548"/><text x="1140" y="520" fill="#A7B0C0" font-family="Inter, Arial" font-size="15" font-weight="650" text-anchor="start">Define threat hypotheses and</text><rect x="1120" y="570" width="330" height="56" rx="14" fill="#0B1220" stroke="#2A3548"/><text x="1140" y="602" fill="#A7B0C0" font-family="Inter, Arial" font-size="15" font-weight="650" text-anchor="start">Broad detections catch more</text><rect x="1120" y="652" width="330" height="56" rx="14" fill="#0B1220" stroke="#2A3548"/><text x="1140" y="684" fill="#A7B0C0" font-family="Inter, Arial" font-size="15" font-weight="650" text-anchor="start">Create a detection-as-code starter</text><text x="70" y="948" fill="#A7B0C0" font-family="Inter, Arial" font-size="17">Fictional portfolio demonstration. No employer, client, proprietary, or confidential materials are used.</text></svg>